<svg xmlns="http://www.w3.org/2000/svg" height="24px" viewBox="0 -960 960 960" width="24px" fill="#e3e3e3"><path d="M240-120q-33 0-56.5-23.5T160-200v-560q0-33 23.5-56.5T240-840h480q33 0 56.5 23.5T800-760v560q0 33-23.5 56.5T720-120H240Zm0-80h480v-560H240v560Zm100-60q25 0 42.5-17.5T400-320q0-25-17.5-42.5T340-380q-25 0-42.5 17.5T280-320q0 25 17.5 42.5T340-260Zm280-320q25 0 42.5-17.5T680-640q0-25-17.5-42.5T620-700q-25 0-42.5 17.5T560-640q0 25 17.5 42.5T620-580ZM480-420q25 0 42.5-17.5T540-480q0-25-17.5-42.5T480-540q-25 0-42.5 17.5T420-480q0 25 17.5 42.5T480-420ZM340-580q25 0 42.5-17.5T400-640q0-25-17.5-42.5T340-700q-25 0-42.5 17.5T280-640q0 25 17.5 42.5T340-580Zm280 320q25 0 42.5-17.5T680-320q0-25-17.5-42.5T620-380q-25 0-42.5 17.5T560-320q0 25 17.5 42.5T620-260ZM240-200v-560 560Z"/></svg>